<svg xmlns="http://www.w3.org/2000/svg" xmlns:xlink="http://www.w3.org/1999/xlink" width="500" zoomAndPan="magnify" viewBox="0 0 375 374.999991" height="500" preserveAspectRatio="xMidYMid meet" version="1.0"><defs><clipPath id="f1fbeb0a0b"><path d="M 0 16.703125 L 375 16.703125 L 375 357.953125 L 0 357.953125 Z M 0 16.703125 " clip-rule="nonzero"/></clipPath></defs><g clip-path="url(#f1fbeb0a0b)"><path fill="#ffffff" d="M 281.164062 21.28125 C 282.257812 21.144531 283.898438 19.640625 285.535156 20.460938 C 285.808594 20.460938 286.355469 21.898438 286.699219 22.035156 C 288.199219 22.648438 287.515625 20.804688 288.269531 21.625 C 288.609375 21.828125 288.882812 22.101562 289.089844 22.441406 C 289.636719 23.742188 290.046875 25.039062 290.25 26.40625 L 292.230469 26.40625 C 292.230469 24.835938 292.230469 24.21875 293.394531 23.671875 C 294.347656 24.5625 295.375 25.175781 296.605469 25.652344 C 295.785156 28.046875 296.605469 30.4375 299.816406 30.4375 C 301.042969 28.523438 303.09375 27.363281 305.347656 27.226562 C 306.238281 28.386719 307.601562 28.457031 309.722656 28.386719 C 310.128906 29 310.402344 29.683594 310.539062 30.367188 C 312.179688 30.367188 313.820312 30.09375 315.390625 29.617188 C 315.597656 29.070312 315.871094 28.523438 316.210938 28.046875 C 317.851562 28.933594 320.789062 26.542969 322.566406 26.0625 C 325.09375 25.382812 326.527344 26.679688 328.507812 26.882812 C 328.851562 27.839844 329.261719 28.726562 329.667969 29.617188 C 330.625 29.617188 331.582031 29.890625 332.402344 30.4375 C 333.769531 27.839844 339.300781 19.914062 342.71875 21.28125 C 343.742188 21.828125 342.992188 21.144531 343.539062 22.101562 C 344.5625 23.535156 344.085938 24.972656 343.949219 26.882812 L 347.5 27.292969 C 347.707031 28.726562 348.046875 28.59375 348.320312 30.027344 C 348.867188 29.957031 349.414062 29.820312 349.890625 29.617188 C 350.164062 30.300781 349.890625 30.027344 350.300781 30.4375 C 350.097656 31.734375 350.097656 33.101562 350.300781 34.398438 C 349.617188 34.878906 348.796875 35.152344 347.910156 35.21875 C 348.046875 37.335938 347.5 39.386719 346.339844 41.164062 C 349.414062 41.230469 352.488281 41.640625 355.492188 42.324219 C 355.902344 42.9375 356.175781 43.621094 356.3125 44.304688 C 355.492188 44.988281 354.949219 46.011719 354.742188 47.039062 C 356.246094 47.859375 357.476562 48.609375 357.953125 50.589844 C 357.066406 51.339844 356.585938 52.433594 355.5625 52.980469 C 355.152344 52.707031 355.152344 52.707031 354.402344 52.570312 C 354.402344 54.210938 354.128906 55.304688 355.5625 56.125 C 354.46875 58.789062 354.332031 61.726562 355.152344 64.390625 L 354.195312 69.171875 L 353.035156 69.171875 C 352.214844 71.222656 350.4375 72.726562 348.253906 73.136719 C 348.390625 76.210938 348.730469 77.917969 348.664062 80.648438 L 350.644531 80.648438 C 351.667969 81.8125 352.351562 81.332031 352.625 83.382812 C 352.214844 83.722656 352.625 83.382812 352.214844 83.792969 L 351.054688 83.792969 C 351.464844 85.636719 351.601562 87.480469 351.464844 89.328125 L 352.625 89.328125 C 352.964844 90.554688 354.265625 91.921875 353.785156 92.539062 C 353.308594 93.152344 352.011719 93.355469 351.054688 93.699219 C 350.847656 95.339844 350.4375 96.910156 349.890625 98.480469 C 350.574219 99.097656 350.984375 99.914062 351.054688 100.871094 C 351.738281 100.871094 352.417969 101.007812 353.035156 101.28125 C 351.464844 104.21875 349.414062 103.46875 349.480469 108.386719 C 350.234375 109.140625 350.644531 110.09375 350.644531 111.121094 L 352.625 111.121094 C 351.875 116.449219 346.816406 114.058594 343.128906 114.671875 L 343.128906 115.082031 C 343.46875 115.492188 343.265625 115.082031 343.539062 115.902344 C 344.085938 115.96875 344.632812 116.105469 345.109375 116.3125 C 344.5625 117.40625 344.289062 118.636719 344.289062 119.863281 C 344.835938 120.890625 344.289062 120.273438 345.453125 120.683594 C 346.066406 119.863281 346.886719 119.316406 347.84375 119.113281 L 347.84375 119.933594 C 348.527344 120.683594 348.527344 120.957031 348.664062 122.324219 C 350.027344 122.390625 351.328125 122.664062 352.625 123.144531 C 352.761719 124.714844 352.761719 126.285156 352.625 127.925781 L 354.195312 127.925781 C 354.195312 129.566406 353.511719 130.042969 353.785156 130.660156 C 354.128906 131.886719 354.539062 131.136719 354.949219 131.820312 C 356.175781 133.664062 354.539062 134.144531 357.679688 134.210938 C 358.433594 132.84375 359.730469 131.820312 361.234375 131.480469 C 361.164062 130.316406 361.164062 129.085938 361.234375 127.925781 C 362.667969 128.40625 364.101562 128.675781 365.605469 128.746094 C 365.742188 129.566406 365.605469 129.496094 366.015625 129.90625 C 366.972656 131.546875 368.335938 132.914062 369.976562 133.871094 C 369.636719 134.554688 369.636719 134.347656 369.976562 135.03125 C 371.34375 136.054688 372.777344 137.011719 374.351562 137.765625 C 373.460938 140.496094 374.757812 143.296875 374.757812 145.6875 L 373.1875 145.6875 C 372.640625 147.191406 371.617188 147.601562 371.207031 149.242188 C 372.574219 150.128906 371.207031 154.773438 368.816406 155.183594 C 367.859375 153.886719 366.425781 153.066406 364.855469 152.792969 C 364.648438 153.683594 364.238281 154.5 363.691406 155.183594 C 363.28125 154.910156 363.28125 154.910156 362.53125 154.773438 C 361.847656 156.347656 360.960938 155.9375 360.550781 157.984375 C 362.121094 159.421875 360.550781 160.171875 360.140625 162.359375 L 362.53125 162.769531 C 363.007812 170.148438 369.363281 170.148438 368.882812 179.027344 C 367.382812 179.710938 366.699219 180.054688 366.492188 182.238281 C 366.972656 183.671875 367.382812 185.109375 367.65625 186.609375 C 367.246094 187.5 367.382812 187.703125 366.492188 188.183594 C 366.082031 187.910156 366.152344 187.910156 365.332031 187.773438 L 365.332031 188.933594 C 364.308594 189.480469 363.898438 190.300781 362.941406 190.914062 C 363.417969 191.667969 363.691406 191.597656 364.101562 192.488281 C 363.144531 193.648438 363.078125 196.449219 361.710938 197.269531 C 360.960938 197.609375 360.140625 197.746094 359.320312 197.679688 L 359.320312 198.839844 L 357.75 198.839844 C 357.542969 199.453125 357.40625 200.136719 357.339844 200.820312 C 357.613281 201.230469 357.613281 201.164062 357.75 201.984375 L 358.910156 201.984375 C 359.386719 203.417969 359.867188 203.28125 360.070312 205.195312 C 358.910156 205.878906 357.679688 206.285156 357.339844 207.925781 C 358.636719 208.953125 358.433594 210.042969 358.5 211.480469 C 361.847656 212.777344 364.171875 212.503906 364.035156 217.421875 C 363.144531 218.039062 362.460938 218.855469 362.050781 219.8125 C 363.007812 220.90625 363.554688 222.339844 363.625 223.777344 C 362.941406 224.1875 362.53125 224.9375 362.460938 225.757812 C 363.144531 226.304688 363.625 226.988281 364.035156 227.738281 C 366.425781 227.738281 366.765625 227.945312 367.996094 228.898438 C 367.246094 230.128906 366.699219 231.496094 366.425781 232.863281 C 367.859375 233.75 368.40625 234.367188 368.40625 236.824219 C 369.226562 238.054688 368.40625 239.558594 367.996094 240.789062 C 366.082031 241.332031 365.261719 240.925781 365.261719 243.519531 C 367.449219 243.929688 368.816406 244.679688 368.816406 247.484375 C 369.292969 248.097656 369.089844 247.6875 368.816406 248.300781 C 368.335938 249.601562 368.472656 249.328125 366.835938 249.464844 C 367.519531 251.855469 367.382812 254.382812 366.5625 256.707031 C 364.648438 256.707031 365.058594 257.59375 362.597656 257.867188 C 362.597656 260.53125 360.550781 262.785156 357.816406 263.058594 C 358.226562 268.59375 355.222656 270.027344 353.855469 275.355469 L 354.265625 277.746094 C 354.058594 278.292969 352.488281 279.183594 352.28125 279.730469 L 353.101562 285.671875 C 352.691406 287.925781 352.144531 290.179688 351.53125 292.4375 C 349.960938 292.4375 350.097656 292.710938 348.320312 293.253906 C 348.320312 294.417969 348.730469 294.074219 348.320312 294.828125 C 347.910156 295.101562 347.980469 295.101562 347.160156 295.238281 C 347.363281 293.597656 347.636719 293.9375 347.980469 292.503906 C 347.363281 292.300781 346.679688 292.164062 345.996094 292.09375 L 345.996094 292.914062 C 345.109375 294.347656 346.40625 295.304688 345.589844 296.875 L 344.015625 297.695312 L 343.605469 301.660156 C 341.558594 301.386719 341.558594 300.496094 339.644531 300.085938 C 339.644531 301.863281 339.4375 303.570312 338.824219 305.28125 L 338.414062 305.28125 L 338.414062 304.871094 C 338.210938 303.980469 338.074219 303.023438 338.003906 302.136719 L 336.84375 302.136719 C 336.226562 302.410156 332.265625 301.386719 329.738281 301.316406 C 329.328125 302.886719 329.261719 303.160156 327.347656 303.296875 C 327.074219 302.480469 326.527344 301.796875 325.777344 301.316406 L 325.777344 301.726562 L 325.367188 301.726562 C 325.640625 303.09375 326.253906 303.707031 324.957031 304.460938 C 324.476562 304.800781 324.273438 304.734375 323.382812 304.871094 L 323.382812 304.050781 C 322.839844 303.023438 323.382812 302.34375 323.792969 300.839844 C 321.472656 301.113281 321.335938 301.933594 318.601562 302 C 317.78125 300.703125 316.484375 299.746094 315.050781 299.269531 C 315.050781 300.90625 315.050781 300.703125 313.886719 301.25 C 313.410156 301.589844 312.453125 301.25 312.316406 301.25 L 310.335938 303.980469 C 308.695312 303.980469 309.105469 304.117188 307.601562 304.800781 L 307.601562 304.390625 C 306.648438 303.09375 306.167969 300.085938 304.871094 299.199219 L 304.871094 299.609375 C 304.527344 300.222656 304.390625 300.90625 304.460938 301.589844 C 305.144531 302.34375 305.144531 302.613281 305.28125 303.980469 L 304.871094 303.980469 L 304.871094 304.390625 C 301.386719 302.683594 298.652344 306.304688 295.375 306.371094 L 295.375 306.234375 C 295.648438 305.824219 295.648438 305.824219 295.785156 305.074219 C 294.417969 304.871094 293.121094 304.460938 291.820312 303.914062 C 291.410156 304.664062 290.867188 305.28125 290.25 305.894531 C 289.636719 305.144531 289.910156 305.347656 288.679688 305.074219 C 288.609375 306.917969 288.609375 308.765625 288.679688 310.609375 C 286.902344 310.609375 283.625 309.71875 283.144531 309.789062 C 282.667969 309.855469 282.324219 311.222656 281.164062 310.949219 C 280.003906 310.746094 278.636719 308.96875 276.792969 308.558594 L 276.792969 309.71875 C 275.5625 310.675781 273.992188 311.085938 272.417969 310.882812 C 272.625 311.976562 272.898438 313 273.238281 314.09375 L 272.078125 314.503906 C 271.257812 314.503906 270.78125 314.707031 270.507812 312.929688 C 270.847656 312.179688 270.507812 312.179688 270.507812 310.949219 L 268.59375 310.949219 C 268.253906 313.820312 267.773438 313.339844 268.59375 316.140625 C 265.859375 316.140625 265.449219 317.851562 264.222656 319.351562 L 263.8125 319.351562 L 263.8125 318.941406 C 261.964844 318.261719 261.964844 316.621094 260.257812 315.730469 C 257.9375 316.894531 256.570312 314.09375 253.90625 315.324219 C 253.152344 313.75 252.46875 314.160156 252.332031 311.769531 C 250.625 312.113281 248.78125 311.976562 247.140625 311.359375 L 247.140625 310.199219 C 248.78125 310.128906 250.351562 309.855469 251.925781 309.378906 C 252.199219 308.902344 252.199219 308.695312 252.332031 307.808594 L 251.171875 307.808594 C 251.105469 306.917969 251.105469 305.960938 251.171875 305.074219 C 250.558594 304.871094 249.875 304.734375 249.191406 304.664062 C 248.917969 304.460938 249.191406 304.117188 248.371094 304.253906 L 248.371094 304.664062 C 247.484375 306.03125 247.960938 307.125 246.390625 307.875 C 245.777344 306.917969 245.503906 306.988281 245.230469 305.484375 C 246.253906 304.527344 245.777344 304.117188 245.640625 302.273438 C 244.339844 301.726562 243.042969 301.453125 241.675781 301.453125 L 241.675781 302.273438 C 242.429688 303.09375 242.496094 303.777344 242.496094 305.484375 C 241.265625 306.851562 239.898438 308.011719 238.328125 308.96875 C 238.601562 309.789062 238.054688 310.199219 238.328125 310.949219 L 239.488281 311.359375 C 240.105469 312.589844 240.378906 313.957031 240.308594 315.324219 C 239.011719 316.210938 239.011719 316.757812 236.757812 316.894531 C 236.414062 316.484375 234.296875 315.1875 234.367188 314.503906 L 234.367188 315.324219 C 233.066406 316.347656 232.042969 317.78125 230.8125 318.875 C 228.492188 318.464844 227.601562 317.851562 227.601562 314.914062 L 230.8125 312.519531 C 233.136719 312.519531 233.203125 313.136719 234.777344 313.683594 C 236.074219 311.703125 237.851562 311.769531 237.988281 308.492188 C 236.6875 307.808594 236.824219 306.714844 236.414062 305.28125 C 235.800781 305.691406 235.253906 306.714844 234.84375 306.097656 C 233.886719 305.210938 232.113281 299.746094 230.882812 298.996094 C 229.925781 300.429688 228.832031 300.90625 228.492188 302.957031 C 229.3125 304.253906 229.652344 305.824219 229.3125 307.328125 C 228.355469 311.085938 224.871094 312.25 221.796875 312.863281 C 219.953125 311.222656 217.96875 309.789062 215.851562 308.492188 C 216.058594 307.191406 216.058594 305.824219 215.851562 304.527344 C 214.007812 304.1875 213.9375 303.570312 211.890625 303.367188 L 211.890625 304.1875 C 212.914062 305.074219 213.121094 306.167969 213.050781 308.148438 C 213.871094 308.285156 213.800781 308.148438 214.210938 308.558594 C 214.621094 308.96875 214.484375 309.242188 214.621094 310.128906 C 214.144531 310.335938 213.597656 310.472656 213.050781 310.539062 C 212.503906 309.925781 212.777344 310.128906 211.890625 309.71875 C 211.546875 311.632812 210.386719 312.453125 208.335938 312.453125 C 206.902344 313.339844 203.964844 311.566406 203.144531 310.472656 C 202.734375 309.789062 202.734375 307.945312 202.324219 307.261719 C 201.914062 307.535156 201.914062 307.535156 201.164062 307.671875 C 201.574219 305.28125 203.214844 304.253906 203.898438 302.136719 C 203.078125 301.660156 203.144531 301.863281 202.734375 300.976562 C 203.417969 300.222656 203.488281 300.703125 203.144531 299.8125 C 202.804688 298.925781 203.28125 299.539062 202.324219 298.996094 C 199.796875 298.652344 197.269531 298.652344 194.808594 298.996094 C 194.46875 300.15625 194.671875 300.085938 193.648438 300.566406 L 193.648438 300.15625 C 192.214844 299.199219 192.761719 297.902344 190.917969 297.421875 C 190.917969 298.449219 191.460938 298.3125 190.097656 298.996094 L 190.097656 298.585938 C 189.824219 298.242188 189.550781 297.355469 189.277344 297.011719 C 187.636719 297.96875 186.886719 296.125 186.066406 295.03125 C 184.5625 295.511719 183.402344 296.738281 182.855469 298.242188 C 182.171875 297.96875 182.445312 298.242188 182.035156 297.832031 C 181.011719 297.285156 181.417969 297.695312 181.214844 296.261719 C 182.035156 295.785156 181.964844 295.988281 182.375 295.101562 L 181.214844 294.691406 C 179.984375 293.9375 178.617188 293.597656 177.253906 293.527344 C 176.433594 295.101562 175.269531 296.535156 174.519531 297.902344 L 174.109375 299.882812 C 173.699219 300.292969 172.195312 300.359375 171.71875 300.703125 C 171.992188 301.113281 171.992188 301.113281 172.128906 301.863281 C 170.898438 301.863281 171.582031 301.179688 170.96875 302.273438 C 173.289062 302.613281 174.042969 304.1875 174.179688 306.644531 C 173.425781 307.054688 172.8125 307.601562 172.195312 308.21875 C 170.488281 308.21875 169.464844 307.125 168.234375 307.398438 C 167.074219 307.671875 166.457031 309.308594 164.273438 308.21875 C 163.519531 307.808594 163.726562 306.304688 163.109375 305.824219 L 161.128906 305.824219 C 160.582031 305.554688 159.285156 303.296875 157.917969 303.84375 L 157.097656 305.007812 C 156.347656 305.417969 154.980469 305.007812 154.707031 305.007812 C 152.792969 306.03125 154.503906 307.191406 150.746094 307.398438 L 150.746094 308.558594 C 151.769531 308.558594 151.222656 308.421875 152.316406 308.96875 L 151.90625 310.128906 L 150.746094 310.128906 C 150.128906 308.558594 149.445312 307.398438 148.765625 305.757812 L 147.601562 305.757812 C 147.601562 307.535156 147.601562 307.945312 146.441406 308.492188 C 145.621094 308.558594 144.871094 308.558594 144.050781 308.492188 C 143.914062 307.671875 144.050781 307.738281 143.640625 307.328125 C 143.230469 306.917969 143.230469 307.054688 142.480469 306.917969 C 142 308.832031 141.316406 309.308594 138.925781 309.308594 C 138.515625 308.765625 137.96875 308.355469 137.355469 308.148438 L 137.355469 308.96875 C 137.628906 309.445312 137.628906 309.652344 137.765625 310.539062 C 136.875 311.359375 135.785156 311.769531 134.554688 311.703125 C 134.144531 311.429688 134.554688 311.703125 133.734375 311.292969 L 133.734375 310.472656 C 133.390625 309.71875 133.253906 308.902344 133.324219 308.082031 C 131.410156 308.011719 129.5 307.464844 127.789062 306.507812 C 127.585938 306.03125 127.449219 305.484375 127.378906 304.9375 C 128.199219 304.527344 128.746094 303.84375 128.953125 302.957031 C 127.789062 302.207031 127.789062 301.796875 127.789062 299.746094 L 128.953125 299.335938 C 129.566406 298.996094 130.25 298.859375 130.933594 298.925781 C 131.617188 300.15625 132.777344 301.179688 134.144531 301.660156 C 134.828125 299.335938 136.535156 299.472656 136.875 296.875 C 135.03125 297.285156 133.871094 298.515625 132.503906 297.695312 C 132.164062 297.21875 132.230469 297.011719 132.09375 296.125 L 130.933594 296.125 L 130.933594 294.964844 L 128.953125 294.964844 L 128.953125 296.535156 C 127.996094 297.148438 126.902344 297.421875 125.742188 297.355469 C 125.332031 296.261719 124.648438 295.304688 123.757812 294.621094 C 123.28125 294.964844 123.078125 294.894531 122.1875 295.03125 L 122.1875 293.050781 C 120.070312 292.503906 118.089844 290.863281 116.246094 291.890625 C 115.082031 292.640625 114.261719 293.734375 113.851562 295.101562 C 114.535156 295.511719 113.851562 296.601562 113.445312 298.3125 L 111.871094 298.3125 C 111.871094 300.632812 111.257812 300.839844 111.050781 303.09375 L 113.445312 303.09375 C 113.988281 301.660156 114.808594 301.589844 115.425781 300.359375 C 115.082031 299.882812 115.152344 299.675781 115.015625 298.789062 C 115.355469 298.585938 115.628906 298.3125 115.835938 297.96875 C 116.519531 298.242188 116.246094 297.96875 116.65625 298.378906 C 118.636719 299.472656 116.65625 299.402344 117.472656 301.113281 C 117.679688 301.523438 118.773438 302.136719 119.046875 302.683594 C 121.503906 301.179688 121.503906 298.789062 125.398438 298.722656 C 125.808594 299.609375 126.355469 300.359375 126.96875 301.113281 C 126.695312 301.796875 126.96875 301.523438 126.5625 301.933594 C 126.015625 303.640625 125.332031 303.980469 123.007812 303.914062 C 121.574219 302.957031 122.257812 303.570312 121.027344 304.324219 C 120.273438 304.324219 120.003906 303.707031 119.046875 303.503906 C 118.839844 305.28125 118.5 305.757812 117.0625 306.234375 C 115.152344 307.464844 114.808594 305.484375 113.851562 304.664062 L 107.910156 305.074219 C 106.476562 304.734375 106.40625 303.84375 104.699219 304.253906 C 104.699219 301.933594 103.878906 301.863281 103.539062 299.882812 C 101.007812 299.882812 101.351562 298.585938 98.34375 298.3125 C 98.140625 298.652344 97.867188 298.925781 97.527344 299.132812 C 98.140625 300.429688 98.824219 300.703125 99.097656 302.34375 C 98.480469 302.75 98.753906 302.75 97.933594 303.160156 C 97.046875 303.503906 96.363281 302.480469 95.203125 302 C 95.203125 305.074219 93.90625 304.324219 93.632812 307.191406 C 94.519531 308.628906 94.996094 310.265625 95.203125 311.976562 C 94.449219 312.25 93.632812 312.382812 92.8125 312.382812 C 92.195312 312.042969 91.511719 311.769531 90.832031 311.566406 L 90.832031 310.402344 L 92.402344 310.402344 L 91.992188 308.421875 L 89.941406 308.421875 C 90.488281 309.789062 90.558594 310.199219 89.121094 310.8125 C 88.234375 310.8125 87.6875 310.8125 87.550781 308.832031 C 88.164062 308.285156 87.960938 308.558594 88.371094 307.671875 C 86.046875 306.851562 86.59375 302.136719 82.425781 301.726562 C 79.421875 306.644531 75.457031 307.671875 70.949219 310.882812 C 69.71875 309.515625 65.894531 309.445312 64.597656 309.308594 C 64.597656 306.988281 63.777344 306.851562 63.023438 305.347656 C 60.429688 305.347656 57.902344 304.800781 55.511719 303.777344 C 53.664062 302.75 55.714844 302.070312 51.957031 301.796875 L 51.957031 300.632812 C 50.589844 300.632812 49.769531 299.675781 48.746094 299.8125 C 48.132812 300.222656 47.449219 300.496094 46.765625 300.632812 C 46.492188 299.949219 46.765625 300.222656 46.355469 299.8125 C 46.832031 298.515625 47.175781 298.925781 47.515625 297.421875 C 46.421875 296.738281 46.492188 296.398438 44.785156 296.261719 C 44.167969 297.148438 44.238281 297.21875 42.804688 297.421875 C 42.394531 296.808594 42.121094 296.125 41.984375 295.441406 C 42.734375 294.828125 42.53125 295.101562 42.804688 293.871094 C 40.410156 292.4375 41.847656 290.660156 37.609375 290.660156 L 37.609375 293.390625 C 36.449219 294.554688 34.808594 294.964844 33.238281 294.554688 C 32.761719 293.390625 32.488281 292.230469 32.417969 291 C 33.167969 290.386719 32.964844 290.660156 33.238281 289.429688 L 31.667969 289.429688 C 31.394531 288.679688 31.257812 287.859375 31.257812 287.039062 C 32.28125 286.492188 32.144531 286.832031 32.417969 285.46875 L 31.257812 285.46875 C 31.53125 284.238281 31.871094 284.511719 30.4375 283.894531 C 29.6875 283.554688 28.867188 283.417969 28.046875 283.484375 C 27.703125 284.648438 27.910156 284.578125 26.882812 285.058594 L 26.882812 284.375 C 25.996094 283.828125 25.382812 282.941406 25.3125 281.914062 C 25.792969 281.027344 25.449219 280.820312 25.3125 279.523438 C 23.265625 279.730469 21.28125 279.457031 19.371094 278.703125 C 19.234375 276.3125 18.480469 276.792969 18.207031 274.742188 C 20.597656 273.714844 19.300781 270.164062 19.027344 268.386719 C 20.804688 267.5 20.871094 266.066406 23.402344 265.65625 L 23.402344 264.492188 C 20.734375 263.8125 18.34375 262.308594 16.636719 260.121094 L 16.636719 259.300781 C 17.660156 258.824219 20.804688 257.867188 21.417969 256.910156 C 20.597656 256.433594 20.257812 255.40625 20.597656 254.519531 C 20.804688 253.90625 22.375 252.058594 22.582031 251.308594 C 22.921875 250.078125 21.898438 250.148438 21.761719 249.738281 C 21.625 249.328125 21.761719 244.546875 21.761719 244.546875 C 22.308594 244 22.992188 243.589844 23.742188 243.382812 L 23.742188 242.222656 C 22.921875 242.085938 22.992188 242.222656 22.582031 241.8125 C 22.445312 240.515625 22.445312 239.148438 22.582031 237.851562 C 18.070312 235.730469 18.414062 230.882812 18.207031 225.960938 C 17.25 225.960938 16.363281 226.097656 15.476562 226.371094 C 15.066406 223.230469 13.289062 223.640625 11.921875 221.589844 C 13.632812 220.839844 14.246094 220.566406 14.3125 218.039062 C 12.605469 216.535156 12.46875 213.1875 11.101562 211.683594 C 10.351562 210.796875 9.394531 211.273438 8.710938 210.113281 C 8.4375 209.703125 8.4375 209.703125 8.300781 208.953125 L 5.433594 208.953125 L 5.433594 207.3125 C 7.824219 205.398438 9.667969 202.9375 10.964844 200.207031 C 10.078125 200 9.394531 199.453125 8.984375 198.636719 C 10.417969 197.882812 11.375 196.378906 11.308594 194.742188 C 8.710938 191.324219 11.308594 185.996094 7.753906 183.265625 C 7.34375 182.992188 7.34375 182.992188 6.59375 182.855469 C 6.59375 181.144531 6.457031 179.78125 6.183594 177.660156 L 5.023438 177.660156 C 4.542969 175.613281 3.589844 175.269531 3.042969 173.289062 C 4.613281 172.46875 4.75 171.855469 4.613281 169.328125 C 3.316406 168.164062 1.949219 166.9375 0.648438 165.84375 L 0.242188 161.742188 C 1.128906 161.332031 1.332031 161.46875 1.8125 160.582031 C 2.835938 158.054688 3.382812 155.390625 3.382812 152.65625 L 4.953125 152.65625 C 5.980469 151.019531 7.753906 149.925781 9.738281 149.925781 L 9.738281 148.695312 C 11.308594 148.078125 12.46875 146.78125 12.949219 145.140625 L 15.269531 145.140625 L 15.269531 143.570312 C 14.109375 143.230469 13.765625 143.023438 13.289062 142 C 15.339844 140.15625 18.070312 139.128906 20.804688 139.265625 L 20.804688 138.105469 L 22.785156 137.695312 C 22.992188 137.21875 23.128906 136.671875 23.195312 136.125 L 22.308594 135.644531 C 22.035156 134.757812 23.535156 134.484375 23.128906 132.914062 C 22.855469 131.820312 21.625 131.070312 21.964844 130.179688 C 22.855469 129.292969 23.332031 129.019531 25.175781 129.019531 C 24.835938 126.695312 24.5625 126.96875 25.175781 125.058594 C 24.699219 124.785156 24.21875 124.648438 23.671875 124.511719 C 22.921875 125.195312 23.398438 125.261719 22.511719 124.921875 C 21.078125 122.871094 23.535156 122.527344 22.511719 120.136719 C 22.375 119.726562 20.804688 119.589844 21.351562 117.746094 C 22.101562 116.3125 22.71875 114.878906 23.332031 113.441406 C 22.445312 112.964844 22.101562 111.941406 21.351562 111.460938 C 18.960938 109.890625 18.070312 111.324219 18.140625 107.089844 C 18.070312 106.269531 18.070312 105.519531 18.140625 104.699219 C 15.953125 104.082031 14.382812 102.238281 14.109375 100.050781 C 12.878906 100.050781 13.015625 100.324219 12.539062 100.050781 C 12.128906 99.4375 11.855469 98.753906 11.71875 98.070312 C 12.878906 97.523438 13.835938 94.175781 14.109375 92.878906 L 12.539062 92.878906 C 12.128906 91.992188 11.648438 91.171875 10.964844 90.488281 C 10.828125 88.027344 11.921875 80.71875 14.039062 80.242188 C 14.585938 81.265625 14.039062 80.648438 15.203125 81.058594 C 15.816406 79.898438 17.046875 79.078125 18.414062 79.078125 L 18.003906 77.097656 C 19.234375 76.757812 20.050781 75.59375 19.984375 74.363281 C 19.507812 73.203125 19.371094 71.90625 19.574219 70.675781 C 18.6875 70.675781 18.480469 70.675781 18.003906 70.265625 C 16.839844 69.652344 15.75 68.832031 14.792969 67.875 C 15.816406 67.328125 15.203125 67.875 15.613281 66.714844 C 14.996094 66.167969 15.203125 66.441406 14.792969 65.550781 C 16.089844 64.9375 16.226562 65.003906 16.363281 63.160156 L 14.859375 63.160156 C 14.996094 60.632812 15.203125 58.105469 15.679688 55.644531 C 15.066406 55.441406 14.382812 55.304688 13.699219 55.234375 L 13.699219 52.84375 C 15.066406 52.023438 16.023438 50.796875 16.433594 49.292969 C 18.070312 49.496094 17.730469 49.769531 19.164062 50.113281 C 19.917969 48.609375 20.460938 47.039062 20.734375 45.328125 L 22.238281 45.328125 C 22.445312 44.714844 22.582031 44.03125 22.648438 43.347656 C 21.964844 42.460938 22.238281 41.4375 22.238281 39.726562 C 23.195312 39.316406 22.992188 39.316406 23.398438 38.566406 C 25.722656 38.566406 26.132812 37.609375 27.363281 37.40625 C 28.59375 37.132812 28.113281 38.632812 29.753906 38.226562 C 32.214844 37.542969 34.125 35.765625 35.015625 33.375 C 34.742188 32.964844 34.878906 33.375 34.605469 32.554688 L 36.585938 32.554688 C 37.269531 33.375 38.292969 33.785156 39.316406 33.714844 C 40.34375 32.554688 41.777344 31.667969 43.28125 31.324219 C 44.648438 33.238281 46.628906 36.242188 49.222656 36.859375 C 50.386719 37.132812 51.273438 36.3125 52.777344 36.859375 C 53.050781 36.859375 54.074219 38.019531 54.347656 38.019531 C 55.238281 38.019531 56.054688 37.335938 57.558594 37.199219 C 57.695312 36.378906 57.558594 36.449219 57.96875 36.039062 C 58.378906 35.628906 57.96875 35.902344 58.789062 35.628906 C 61.523438 34.261719 65.210938 37.199219 67.945312 35.21875 C 68.488281 34.605469 68.898438 33.988281 69.242188 33.238281 L 73.339844 34.332031 C 74.367188 32.621094 76.140625 31.460938 78.121094 31.121094 C 79.761719 32.964844 82.222656 30.914062 84.886719 31.53125 C 84.886719 31.53125 89.394531 32.964844 89.667969 33.101562 L 90.488281 34.671875 C 92.605469 35.492188 98.140625 29.136719 98.003906 25.925781 L 97.59375 25.925781 L 97.59375 25.652344 L 94.859375 25.246094 C 94.859375 23.742188 95.40625 22.304688 96.433594 21.28125 C 98.277344 22.171875 100.121094 19.230469 101.625 18.550781 C 102.238281 18.753906 102.921875 18.890625 103.605469 18.960938 L 103.605469 20.121094 L 104.425781 20.121094 C 105.382812 20.734375 106.476562 21.144531 107.636719 21.28125 C 107.773438 20.460938 107.636719 20.53125 108.046875 20.121094 C 109.550781 21.007812 112.828125 19.367188 114.398438 20.121094 C 115.972656 20.871094 115.425781 22.851562 116.789062 23.671875 C 117.542969 24.015625 118.363281 24.152344 119.183594 24.082031 L 119.183594 25.246094 L 120.34375 25.246094 C 120.753906 23.671875 121.164062 23.058594 123.074219 22.851562 C 124.167969 24.289062 125.261719 24.289062 125.808594 26.40625 L 126.96875 26.40625 L 126.96875 25.246094 L 127.789062 25.246094 C 129.839844 23.398438 132.980469 23.605469 134.828125 25.652344 C 135.578125 26.542969 136.054688 27.636719 136.125 28.863281 C 137.355469 28.726562 138.515625 28.863281 139.675781 29.273438 C 140.976562 26.199219 143.640625 24.015625 146.851562 23.332031 C 147.464844 24.289062 147.738281 24.21875 148.011719 25.722656 C 151.019531 25.449219 154.09375 25.3125 157.167969 25.3125 C 157.917969 27.089844 159.558594 28.320312 161.539062 28.523438 L 161.539062 29.683594 C 162.972656 29.136719 164.410156 28.726562 165.910156 28.523438 C 166.253906 29.480469 166.320312 29.136719 166.730469 30.09375 C 166.253906 30.4375 166.390625 30.4375 166.253906 31.257812 L 169.804688 30.847656 C 170.695312 31.121094 171.855469 32.28125 173.015625 32.007812 C 174.792969 31.667969 177.730469 28.320312 180.53125 29.617188 C 181.554688 30.164062 180.804688 29.480469 181.351562 30.4375 C 181.898438 31.394531 181.214844 33.167969 180.941406 34.808594 L 181.351562 34.808594 L 181.351562 35.21875 C 183.605469 35.558594 185.859375 35.695312 188.113281 35.628906 C 188.457031 35.492188 188.113281 34.605469 188.933594 34.46875 C 190.574219 35.421875 192.28125 36.175781 194.125 36.859375 C 194.808594 34.945312 196.449219 33.511719 198.5 33.238281 C 199.046875 34.261719 198.976562 33.988281 200.480469 34.058594 C 200.820312 35.96875 200.957031 36.378906 203.214844 36.449219 L 203.214844 34.945312 L 206.765625 35.355469 C 207.175781 37.0625 207.859375 37.609375 209.976562 37.746094 C 209.976562 33.785156 211.683594 28.59375 215.511719 28.25 C 215.785156 28.046875 215.511719 27.703125 216.332031 27.839844 L 216.332031 28.25 C 217.421875 29.070312 218.039062 30.4375 217.902344 31.804688 C 222.480469 31.460938 223.570312 33.648438 228.628906 33.785156 C 229.242188 32.894531 229.175781 32.828125 230.609375 32.621094 C 232.25 34.195312 236.894531 33.714844 239.761719 33.785156 C 239.214844 31.460938 240.171875 29.070312 242.15625 27.773438 C 243.316406 27.363281 244.546875 27.226562 245.707031 27.363281 C 246.320312 28.660156 246.253906 28.796875 248.097656 28.933594 C 248.847656 28.59375 248.847656 28.933594 250.078125 28.933594 C 251.242188 26.472656 253.425781 24.5625 256.023438 23.742188 C 256.84375 25.246094 257.730469 26.746094 258.753906 28.113281 C 260.601562 27.773438 262.511719 27.910156 264.289062 28.523438 C 264.902344 26.609375 267.84375 22.851562 270.234375 22.578125 C 271.394531 23.742188 271.394531 23.46875 273.445312 23.398438 C 274.058594 20.257812 276.382812 17.660156 279.457031 16.703125 C 280.277344 18.207031 281.09375 18.34375 281.164062 21.28125 M 362.460938 279.113281 L 364.035156 279.113281 C 364.238281 279.523438 364.511719 279.933594 364.851562 280.273438 C 364.582031 280.957031 364.851562 280.683594 364.445312 281.09375 C 363.964844 282.394531 364.101562 282.121094 362.460938 282.257812 C 361.710938 280.753906 361.710938 280.546875 362.460938 279.113281 M 358.5 285.058594 C 359.796875 285.671875 359.933594 285.605469 360.070312 287.449219 L 359.25 287.449219 C 358.839844 287.722656 358.839844 287.722656 358.089844 287.859375 C 357.816406 287.105469 357.679688 286.289062 357.679688 285.46875 C 358.429688 285.195312 358.089844 285.398438 358.5 285.058594 M 116.109375 293.324219 C 117.0625 293.390625 118.019531 293.664062 118.839844 294.144531 C 119.113281 294.554688 119.113281 294.554688 119.25 295.304688 C 118.226562 295.101562 117.132812 294.964844 116.039062 294.894531 Z M 352.554688 293.734375 L 353.992188 293.734375 L 353.992188 295.304688 L 352.417969 295.304688 Z M 179.574219 298.449219 L 180.394531 298.449219 L 180.394531 299.269531 L 179.574219 299.269531 Z M 179.574219 299.269531 C 179.574219 300.703125 179.710938 301.113281 180.738281 301.660156 C 181.828125 300.632812 183.332031 300.359375 184.699219 300.839844 L 184.699219 302.820312 C 184.085938 303.230469 183.402344 303.503906 182.71875 303.640625 C 182.308594 303.367188 182.71875 303.640625 181.898438 303.230469 L 181.898438 304.390625 C 182.71875 305.757812 181.351562 307.398438 180.738281 308.765625 L 180.328125 308.765625 L 180.328125 308.355469 C 178.824219 306.917969 177.117188 305.894531 175.132812 305.144531 L 175.542969 303.980469 C 176.160156 303.570312 176.84375 303.296875 177.527344 303.160156 C 178.617188 304.050781 178.070312 303.433594 179.917969 303.160156 L 179.917969 302 C 178.207031 302.273438 176.5 301.863281 175.132812 300.839844 C 174.859375 300.359375 174.859375 300.15625 174.722656 299.269531 C 175.339844 299.0625 176.023438 298.925781 176.707031 298.859375 C 177.664062 299.269531 178.617188 299.402344 179.574219 299.269531 M 353.375 302.480469 L 351.804688 302.480469 L 351.394531 301.316406 C 351.871094 300.976562 352.417969 300.703125 352.964844 300.496094 L 352.964844 300.90625 C 353.308594 301.316406 353.308594 301.523438 353.375 302.480469 M 230.746094 304.050781 L 229.582031 304.050781 L 229.582031 301.660156 L 230.402344 301.660156 L 230.402344 302.070312 C 230.746094 302.613281 230.882812 303.367188 230.746094 304.050781 M 37.609375 302.070312 L 38.429688 302.070312 L 38.429688 302.886719 L 37.609375 302.886719 Z M 194.332031 302.070312 L 195.152344 302.070312 L 195.152344 302.886719 L 194.261719 302.886719 Z M 343.878906 302.410156 L 344.699219 302.410156 L 344.699219 302.820312 L 344.289062 302.820312 L 344.289062 303.230469 L 343.878906 303.230469 Z M 100.328125 303.640625 C 101.625 303.980469 101.828125 303.980469 102.308594 305.210938 C 102.785156 306.441406 102.511719 306.507812 102.308594 307.601562 L 101.417969 307.601562 C 100.804688 307.945312 100.121094 308.082031 99.4375 308.011719 C 99.097656 307.464844 98.6875 306.917969 98.277344 306.441406 C 98.6875 304.734375 99.234375 304.597656 100.257812 303.707031 M 14.929688 304.050781 L 16.089844 304.050781 C 16.570312 304.734375 16.910156 305.554688 16.910156 306.441406 L 16.089844 306.441406 C 15.679688 306.714844 15.75 306.714844 14.929688 306.851562 C 14.585938 306.441406 14.3125 305.960938 14.039062 305.417969 L 14.449219 305.417969 Z M 192.28125 307.191406 L 192.28125 304.800781 C 193.101562 304.253906 194.058594 303.980469 195.015625 303.980469 C 195.21875 304.597656 195.355469 305.28125 195.425781 305.960938 L 194.605469 306.371094 C 193.921875 306.917969 193.101562 307.191406 192.28125 307.191406 M 308.492188 304.460938 C 309.105469 304.800781 309.585938 305.347656 309.652344 306.03125 L 309.242188 306.03125 C 308.832031 306.304688 308.832031 306.304688 308.082031 306.441406 C 307.875 305.210938 307.945312 305.621094 308.492188 304.460938 M 80.378906 305.757812 L 82.359375 305.757812 L 82.359375 306.578125 C 82.699219 307.054688 82.632812 307.261719 82.769531 308.148438 L 81.605469 308.558594 C 81.128906 308.832031 81.195312 308.558594 80.035156 308.558594 L 80.035156 307.738281 C 79.421875 306.714844 79.96875 306.714844 80.378906 305.757812 Z M 112.554688 306.578125 C 112.214844 307.875 112.761719 307.191406 111.734375 307.738281 C 111.257812 306.851562 111.050781 306.988281 110.164062 306.578125 L 110.164062 306.167969 L 110.574219 306.167969 L 110.574219 305.757812 C 111.121094 306.234375 111.804688 306.507812 112.554688 306.578125 Z M 311.703125 305.757812 C 313.273438 306.167969 313.546875 306.234375 313.683594 308.148438 C 313 308.628906 312.179688 308.96875 311.292969 308.96875 C 310.882812 308.355469 310.609375 307.671875 310.472656 306.988281 C 310.746094 306.578125 310.609375 306.988281 310.882812 306.167969 C 311.566406 305.894531 311.292969 306.167969 311.703125 305.757812 Z M 185.929688 306.167969 L 186.75 306.167969 L 186.75 306.578125 L 186.339844 306.578125 L 186.339844 306.988281 C 185.996094 306.507812 186.339844 306.917969 185.929688 306.167969 Z M 342.648438 306.507812 C 343.675781 307.054688 343.058594 306.507812 343.46875 307.671875 L 342.648438 307.671875 Z M 115.289062 307.328125 C 115.902344 307.875 115.699219 307.601562 116.109375 308.492188 L 114.945312 308.492188 Z M 320.445312 307.328125 L 321.265625 307.328125 L 321.265625 308.148438 L 320.445312 308.148438 Z M 345.859375 307.738281 L 347.023438 308.148438 L 347.023438 308.558594 L 346.613281 308.558594 C 346.203125 308.832031 346.613281 308.695312 345.792969 308.96875 L 345.792969 307.738281 Z M 55.78125 308.148438 C 56.601562 308.285156 56.535156 308.148438 56.945312 308.558594 C 57.355469 308.96875 57.21875 309.242188 57.355469 310.128906 L 56.945312 310.128906 L 56.945312 310.539062 C 56.261719 310.265625 56.535156 310.539062 56.125 310.128906 C 55.03125 309.378906 55.441406 309.242188 55.78125 308.148438 M 173.222656 308.082031 C 174.316406 308.695312 174.246094 308.421875 174.382812 310.0625 C 173.90625 310.265625 173.359375 310.402344 172.8125 310.472656 C 172.605469 310.128906 172.332031 309.855469 171.992188 309.652344 L 172.402344 308.492188 C 173.152344 308.21875 172.8125 308.492188 173.222656 308.082031 M 303.367188 308.082031 C 304.117188 308.285156 304.800781 308.695312 305.347656 309.242188 C 305.074219 309.925781 305.347656 309.652344 304.9375 310.0625 C 304.597656 310.949219 304.597656 310.609375 304.117188 311.222656 C 303.4375 310.949219 303.707031 311.222656 303.300781 310.8125 C 302.136719 309.855469 302.753906 309.308594 303.367188 308.082031 M 76.003906 308.902344 C 77.03125 309.445312 76.414062 308.902344 76.824219 310.0625 C 75.527344 309.515625 76.003906 310.128906 76.003906 308.902344 M 233.546875 310.128906 C 232.25 309.789062 232.929688 310.335938 232.386719 309.308594 L 232.792969 309.308594 L 232.792969 308.902344 L 233.613281 308.902344 L 233.613281 310.128906 Z M 80.789062 309.308594 L 81.605469 309.308594 C 81.605469 311.632812 83.042969 311.769531 83.179688 315.253906 C 81.878906 316.140625 81.878906 316.6875 79.625 316.824219 C 78.464844 315.59375 77.714844 315.730469 77.644531 313.273438 C 79.214844 312.453125 80.378906 311.019531 80.789062 309.308594 M 112.488281 309.308594 L 114.878906 309.71875 L 114.878906 310.539062 L 114.46875 310.539062 C 114.058594 310.8125 114.058594 310.8125 113.308594 310.949219 C 112.488281 309.789062 112.488281 310.472656 112.488281 309.308594 M 153.410156 309.308594 L 155.050781 309.308594 C 155.527344 309.992188 155.867188 310.8125 155.867188 311.703125 C 154.367188 312.726562 154.980469 313.339844 153.886719 314.09375 L 153.886719 313.683594 C 152.863281 312.382812 152.726562 310.675781 153.410156 309.308594 M 307.808594 309.308594 C 307.464844 310.609375 308.011719 309.925781 306.988281 310.472656 L 306.988281 310.0625 C 306.648438 309.652344 306.851562 310.0625 306.578125 309.242188 L 307.808594 309.242188 Z M 323.65625 309.308594 C 325.230469 309.71875 325.503906 309.789062 325.640625 311.703125 C 324.957031 312.179688 324.136719 312.519531 323.246094 312.519531 C 322.496094 311.359375 322.632812 312.382812 321.675781 311.703125 C 321.402344 311.292969 321.402344 311.359375 321.265625 310.539062 C 322.15625 310.265625 322.972656 309.855469 323.65625 309.308594 M 311.769531 309.652344 L 312.589844 309.652344 L 312.589844 310.472656 L 311.769531 310.472656 Z M 343.128906 309.652344 L 345.519531 309.652344 L 345.519531 310.0625 L 345.792969 310.0625 L 345.792969 310.882812 L 344.972656 310.882812 C 344.425781 311.019531 343.8125 310.882812 343.402344 310.472656 C 343.058594 310.0625 343.265625 310.472656 342.992188 309.652344 M 184.628906 310.0625 C 185.65625 310.609375 185.039062 310.0625 185.449219 311.222656 C 184.152344 310.609375 184.699219 311.222656 184.628906 310.0625 M 162.5625 310.882812 L 163.316406 310.882812 L 163.316406 311.703125 L 162.496094 311.703125 Z M 310.539062 310.882812 C 312.179688 310.882812 312.589844 311.15625 313.273438 312.042969 C 313.957031 313.066406 314.230469 314.367188 314.09375 315.59375 C 313.273438 316.003906 312.453125 316.550781 311.703125 317.167969 C 310.472656 316.621094 309.242188 315.9375 308.148438 315.1875 C 306.375 317.097656 303.300781 318.328125 303.367188 313.613281 C 304.324219 313.066406 305.210938 312.382812 306.101562 312.792969 C 307.054688 313.203125 307.261719 313.546875 308.492188 313.957031 L 308.492188 313.546875 C 309.378906 312.792969 309.992188 311.90625 310.539062 310.882812 M 187.910156 311.222656 C 189.207031 311.566406 188.523438 311.019531 189.070312 312.042969 L 187.910156 312.453125 Z M 21.691406 311.632812 C 22.238281 311.703125 22.785156 311.839844 23.261719 312.042969 L 23.261719 312.863281 C 22.921875 313.066406 22.648438 313.339844 22.445312 313.683594 L 21.28125 313.273438 C 21.28125 312.65625 21.417969 312.113281 21.691406 311.632812 M 125.195312 311.632812 C 126.902344 311.632812 128.679688 311.769531 130.386719 312.042969 C 131.617188 314.230469 132.164062 316.6875 131.957031 319.148438 C 130.523438 320.242188 130.386719 321.265625 127.996094 321.539062 C 125.261719 323.246094 121.027344 318.125 119.730469 321.539062 C 120.070312 322.289062 119.863281 322.015625 119.730469 323.109375 C 119.183594 323.453125 118.636719 323.863281 118.15625 324.273438 C 117.472656 324 117.746094 324.273438 117.335938 323.863281 C 115.765625 323.316406 115.699219 322.835938 115.765625 320.652344 C 116.382812 320.242188 117.0625 319.96875 117.746094 319.832031 C 118.292969 319.832031 118.839844 319.96875 119.320312 320.242188 C 120.207031 318.191406 121.847656 318.875 122.050781 315.867188 C 120.753906 315.457031 120.753906 315.457031 120.480469 313.886719 C 120.820312 313.476562 120.617188 313.886719 120.890625 313.066406 C 123.621094 313.066406 123.621094 313.066406 125.261719 311.496094 M 178.414062 311.566406 C 178.960938 311.632812 179.507812 311.769531 179.984375 311.976562 L 179.984375 312.792969 C 179.644531 313 179.371094 313.273438 179.164062 313.613281 L 178.003906 313.203125 C 178.003906 312.589844 178.140625 312.042969 178.414062 311.566406 M 39.933594 311.90625 L 41.503906 311.90625 C 41.710938 312.382812 41.847656 312.929688 41.914062 313.476562 C 41.300781 313.886719 40.617188 314.160156 39.933594 314.296875 C 39.183594 312.863281 39.183594 313.339844 39.933594 311.90625 M 85.910156 311.90625 L 87.484375 311.90625 C 88.371094 313.273438 89.054688 314.707031 89.464844 316.277344 C 88.78125 316.757812 87.960938 317.03125 87.074219 317.097656 C 86.320312 315.460938 85.160156 314.160156 85.910156 311.90625 M 196.175781 311.90625 L 198.15625 311.90625 C 198.429688 312.589844 198.15625 312.316406 198.566406 312.726562 C 198.292969 313.410156 198.566406 313.136719 198.15625 313.546875 C 197.746094 313.957031 197.816406 314.09375 196.585938 314.367188 C 196.246094 313.886719 195.972656 313.339844 195.765625 312.792969 C 196.175781 312.316406 195.972656 312.792969 196.175781 311.90625 M 242.632812 311.976562 L 244.203125 311.976562 C 244.613281 312.589844 244.886719 313.273438 245.023438 313.957031 C 244.339844 314.433594 243.519531 314.707031 242.632812 314.777344 C 242.289062 314.296875 242.019531 313.75 241.8125 313.203125 L 242.222656 313.203125 Z M 73.613281 312.316406 L 76.003906 312.316406 C 76.960938 313.75 77.984375 315.390625 75.59375 316.277344 C 75.117188 316.621094 74.910156 316.550781 74.023438 316.6875 C 73.683594 316.347656 73.273438 316.074219 72.863281 315.867188 C 72.589844 313.683594 72.65625 313.886719 73.613281 312.316406 M 102.171875 315.867188 L 102.171875 313.476562 C 102.648438 313.203125 103.058594 312.792969 103.332031 312.316406 C 104.425781 312.792969 105.382812 313.410156 104.902344 314.296875 C 104.492188 315.1875 104.355469 315.117188 103.332031 315.460938 C 102.921875 315.800781 102.992188 315.730469 102.171875 315.867188 M 200.617188 312.316406 L 202.597656 312.316406 L 202.597656 313.136719 C 202.871094 313.546875 202.871094 313.476562 203.007812 314.296875 C 202.394531 314.707031 201.710938 314.980469 201.027344 315.117188 C 200.34375 314.367188 200.207031 313.273438 200.617188 312.316406 M 316.824219 312.316406 L 318.398438 312.316406 C 318.601562 312.65625 318.875 312.929688 319.21875 313.136719 C 318.945312 313.820312 319.21875 313.546875 318.808594 313.957031 C 318.328125 315.253906 318.464844 314.980469 316.824219 315.117188 C 316.621094 314.707031 316.347656 314.296875 316.007812 313.957031 Z M 149.855469 312.726562 C 149.515625 314.023438 150.0625 313.339844 149.035156 313.886719 L 149.035156 313.476562 C 148.695312 313.066406 148.898438 313.476562 148.628906 312.65625 L 149.855469 312.65625 Z M 163.316406 315.117188 L 163.316406 313.546875 C 165.570312 313.203125 167.621094 312.042969 168.847656 314.367188 C 169.121094 314.777344 169.121094 314.777344 169.257812 315.527344 C 168.574219 316.003906 167.757812 316.347656 166.867188 316.347656 C 165.84375 315.460938 164.613281 315.050781 163.316406 315.117188 M 185.382812 312.792969 L 187.773438 313.613281 L 187.773438 314.023438 L 187.363281 314.023438 C 186.75 314.367188 186.066406 314.503906 185.382812 314.433594 C 185.246094 313.339844 185.175781 313.75 185.382812 312.792969 M 333.015625 315.9375 L 333.015625 313.546875 C 333.699219 313.066406 334.519531 312.792969 335.410156 312.726562 L 335.410156 313.546875 C 335.75 314.023438 335.679688 314.230469 335.816406 315.117188 L 335.410156 315.117188 L 335.410156 315.527344 Z M 248.097656 313.546875 L 248.097656 315.117188 C 247.277344 314.980469 247.347656 315.117188 246.9375 314.707031 C 246.527344 314.296875 246.800781 314.707031 246.527344 313.886719 L 246.9375 313.886719 L 246.9375 313.476562 L 248.097656 313.476562 Z M 155.59375 316.757812 L 156.757812 316.757812 C 157.167969 317.371094 157.441406 318.054688 157.578125 318.738281 C 156.484375 319.351562 153.613281 320.789062 152.792969 320.308594 C 151.839844 320.035156 151.019531 319.488281 150.402344 318.738281 C 148.96875 319.285156 149.378906 319.898438 147.671875 320.308594 C 147.125 320.445312 146.507812 320.308594 146.097656 319.898438 C 145.417969 319.148438 145.347656 318.667969 145.28125 317.167969 C 146.167969 316.414062 147.328125 316.003906 148.492188 316.003906 C 149.171875 317.03125 149.242188 317.03125 150.882812 317.167969 C 151.429688 315.664062 152.316406 315.390625 153.273438 314.433594 C 153.957031 314.707031 153.683594 314.433594 154.09375 314.84375 C 155.390625 315.253906 155.390625 315.253906 155.59375 316.757812 M 110.4375 314.777344 L 111.597656 314.777344 L 111.597656 315.9375 L 110.4375 315.9375 Z M 94.175781 317.167969 L 94.175781 315.59375 L 94.996094 315.59375 L 94.996094 315.1875 C 95.40625 314.777344 95.40625 315.59375 95.40625 315.59375 L 96.226562 316.003906 L 95.816406 317.167969 Z M 342.511719 315.1875 L 342.511719 316.347656 C 341.695312 316.210938 341.761719 316.347656 341.351562 315.9375 L 340.941406 315.9375 L 340.941406 315.527344 L 341.351562 315.527344 L 341.351562 315.117188 Z M 112.761719 315.59375 L 113.921875 315.59375 C 114.125 315.9375 114.398438 316.210938 114.742188 316.414062 C 114.46875 317.097656 114.742188 316.824219 114.332031 317.234375 C 113.785156 318.191406 114.46875 317.507812 113.511719 318.054688 C 112.144531 318.125 111.941406 317.371094 112.828125 315.730469 Z M 159.214844 315.59375 C 160.71875 316.074219 160.789062 316.414062 160.789062 318.328125 C 160.105469 318.601562 160.378906 318.328125 159.96875 318.738281 C 159.285156 318.464844 159.558594 318.738281 159.148438 318.328125 C 158.261719 317.988281 158.601562 317.988281 157.988281 317.507812 C 158.261719 316.824219 158.667969 316.140625 159.214844 315.59375 Z M 270.300781 315.59375 C 270.574219 316.003906 270.574219 316.003906 270.710938 316.757812 L 269.890625 316.757812 Z M 44.167969 315.9375 L 46.148438 316.347656 C 47.175781 318.535156 46.96875 320.171875 43.757812 320.308594 C 42.9375 319.421875 42.527344 318.328125 42.597656 317.097656 C 43.144531 316.824219 43.691406 316.414062 44.167969 315.9375 M 200.890625 315.9375 L 202.871094 316.347656 C 203.621094 317.917969 204.101562 319.078125 202.050781 319.898438 C 201.164062 320.378906 200.003906 320.242188 199.320312 319.488281 C 198.976562 319.078125 199.183594 319.488281 198.910156 318.671875 C 199.320312 317.917969 199.59375 317.097656 199.730469 316.277344 C 200.546875 316.210938 200.480469 316.347656 200.890625 315.9375 M 344.152344 315.9375 C 345.179688 316.484375 344.5625 315.9375 344.972656 317.097656 L 344.5625 317.097656 L 344.5625 316.6875 C 344.222656 316.347656 344.425781 316.757812 344.152344 315.9375 M 175.132812 319.558594 L 175.132812 317.167969 C 175.816406 316.6875 176.636719 316.347656 177.527344 316.347656 L 177.527344 317.167969 C 177.867188 317.644531 177.796875 317.851562 177.933594 318.738281 L 177.527344 318.738281 L 177.527344 319.148438 Z M 274.332031 316.347656 L 276.722656 316.347656 C 277.339844 317.167969 277.746094 318.125 277.882812 319.078125 C 277.132812 319.488281 276.519531 320.035156 275.902344 320.652344 C 275.21875 320.378906 275.492188 320.652344 275.082031 320.242188 C 272.898438 319.625 273.445312 317.851562 274.332031 316.347656 M 82.699219 316.6875 C 83.519531 316.824219 83.453125 316.6875 83.863281 317.097656 C 84.273438 317.507812 84.136719 317.78125 84.273438 318.667969 C 83.792969 318.875 83.246094 319.011719 82.699219 319.078125 C 82.015625 317.578125 81.949219 318.125 82.699219 316.6875 M 239.421875 316.6875 C 241.199219 317.03125 240.855469 317.851562 240.992188 317.851562 C 242.359375 317.234375 243.863281 316.960938 245.367188 317.03125 L 245.367188 317.851562 C 245.707031 318.464844 245.84375 319.148438 245.773438 319.832031 C 245.160156 320.242188 244.476562 320.515625 243.792969 320.652344 L 243.792969 321.0625 C 243.382812 321.472656 243.382812 320.652344 243.382812 320.652344 C 241.675781 320.242188 242.425781 319.214844 241.402344 318.671875 L 239.421875 319.078125 C 238.125 318.328125 238.945312 317.578125 239.421875 316.6875 M 315.1875 319.078125 L 313.136719 319.078125 C 312.933594 318.601562 312.796875 318.054688 312.726562 317.507812 C 313.339844 317.304688 314.023438 317.167969 314.707031 317.097656 C 314.980469 317.714844 315.117188 318.398438 315.1875 319.078125 M 162.90625 317.78125 C 163.863281 317.78125 164.75 317.917969 165.636719 318.191406 L 165.636719 319.011719 C 165.980469 319.625 166.117188 320.308594 166.046875 320.992188 C 165.5 321.335938 164.953125 321.746094 164.476562 322.152344 C 161.742188 321.609375 161.742188 319.832031 162.90625 317.78125 M 183.539062 319.011719 C 184.835938 319.351562 184.152344 318.804688 184.699219 319.832031 L 184.289062 319.832031 L 184.289062 320.242188 C 183.058594 319.558594 183.539062 320.171875 183.539062 319.011719 M 186.339844 319.761719 L 187.160156 319.761719 L 187.160156 320.515625 L 186.339844 320.515625 Z M 155.320312 320.992188 L 156.894531 320.992188 C 157.097656 321.472656 157.234375 322.015625 157.304688 322.5625 C 156.6875 322.769531 156.003906 322.90625 155.320312 322.972656 C 155.050781 322.289062 155.050781 321.609375 155.320312 320.992188 M 197.40625 321.335938 L 199.796875 321.746094 L 200.207031 322.90625 C 200.683594 323.726562 200.410156 323.792969 200.207031 324.886719 C 199.457031 325.226562 198.636719 325.5 197.816406 325.707031 C 196.039062 323.929688 196.039062 323.453125 197.40625 321.335938 M 154.160156 322.90625 C 154.707031 322.972656 155.253906 323.109375 155.730469 323.316406 C 155.457031 324 155.730469 323.726562 155.320312 324.136719 C 154.914062 324.546875 154.914062 324.410156 154.160156 324.546875 C 154.023438 323.519531 153.886719 323.863281 154.160156 322.90625 M 65.277344 325.636719 L 66.851562 325.636719 C 67.054688 325.980469 67.328125 326.253906 67.671875 326.457031 C 67.398438 327.140625 67.671875 326.867188 67.261719 327.277344 C 66.917969 328.167969 66.917969 327.824219 66.441406 328.4375 C 65.757812 328.167969 66.03125 328.4375 65.621094 328.03125 C 64.664062 327.277344 64.871094 326.867188 65.277344 325.636719 M 222 325.707031 L 223.570312 325.707031 C 223.914062 326.183594 224.1875 326.730469 224.390625 327.277344 L 224.117188 327.277344 L 223.296875 328.4375 C 222.617188 328.167969 222.890625 328.4375 222.480469 328.03125 C 220.976562 327.210938 221.589844 326.730469 222.070312 325.636719 M 296.742188 325.707031 C 297.492188 325.980469 298.175781 326.390625 298.722656 326.867188 L 298.722656 327.6875 C 298.039062 328.167969 297.21875 328.4375 296.332031 328.507812 C 295.714844 326.664062 295.785156 327.277344 296.742188 325.707031 M 32.078125 326.527344 C 33.714844 326.9375 33.648438 327.210938 33.648438 329.257812 L 32.828125 329.257812 C 32.417969 329.53125 32.488281 329.53125 31.667969 329.667969 C 31.1875 328.984375 30.847656 328.167969 30.847656 327.277344 C 31.324219 327.074219 31.734375 326.800781 32.078125 326.527344 M 188.796875 326.527344 C 190.4375 326.9375 190.371094 327.210938 190.371094 329.257812 L 189.550781 329.257812 C 189.140625 329.53125 189.140625 329.53125 188.386719 329.667969 C 187.910156 328.984375 187.566406 328.167969 187.566406 327.277344 C 187.976562 327.074219 188.386719 326.730469 188.730469 326.390625 Z M 111.394531 326.867188 L 112.964844 326.867188 C 112.898438 327.414062 112.761719 327.960938 112.554688 328.4375 C 111.871094 328.167969 112.144531 328.4375 111.734375 328.03125 C 111.394531 327.6875 111.53125 327.6875 111.394531 326.867188 Z M 263.402344 329.667969 C 262.582031 329.53125 262.648438 329.667969 262.238281 329.257812 C 261.898438 328.644531 261.761719 327.960938 261.828125 327.277344 L 262.648438 327.277344 C 263.128906 326.9375 263.332031 327.003906 264.222656 326.867188 C 264.496094 327.621094 264.632812 328.4375 264.632812 329.257812 C 264.289062 329.667969 264.496094 329.257812 264.222656 330.078125 C 266.542969 330.078125 266.269531 330.625 267.433594 331.648438 C 267.160156 332.332031 267.433594 332.058594 267.023438 332.46875 C 266.476562 334.042969 265.996094 334.109375 263.8125 334.042969 L 263.402344 332.878906 C 262.785156 331.855469 263.265625 330.96875 263.402344 329.667969 M 268.183594 326.867188 L 269.753906 326.867188 C 269.6875 327.414062 269.550781 327.960938 269.34375 328.4375 C 268.660156 328.167969 268.933594 328.4375 268.523438 328.03125 C 268.183594 327.6875 268.320312 327.6875 268.183594 326.867188 M 344.015625 328.4375 L 342.445312 328.4375 C 342.511719 327.894531 342.648438 327.347656 342.855469 326.867188 L 344.015625 327.277344 Z M 138.449219 329.191406 L 139.609375 329.191406 C 140.085938 329.875 140.429688 330.695312 140.429688 331.582031 C 139.8125 331.785156 139.132812 331.921875 138.449219 331.992188 C 138.105469 331.515625 137.832031 330.96875 137.628906 330.421875 L 138.039062 330.421875 L 138.449219 329.191406 M 107.089844 330.011719 C 108.183594 330.011719 109.207031 330.148438 110.300781 330.421875 L 110.710938 332.8125 C 109.824219 333.632812 108.730469 334.042969 107.5 333.972656 C 106.40625 333.289062 105.175781 332.878906 103.945312 332.8125 L 103.945312 330.832031 L 104.355469 330.832031 L 104.355469 330.421875 C 106.132812 330.351562 106.269531 330.832031 107.089844 330.011719 M 338.347656 330.011719 L 340.738281 330.421875 L 340.738281 330.832031 L 341.148438 330.832031 C 341.148438 332.128906 341.558594 332.128906 341.148438 332.8125 C 340.667969 334.316406 340.328125 334.382812 338.414062 334.382812 C 337.046875 332.402344 337.117188 331.855469 338.347656 330.011719 M 185.996094 331.921875 L 184.425781 331.921875 C 184.492188 331.378906 184.628906 330.832031 184.835938 330.351562 C 185.519531 330.625 185.246094 330.351562 185.65625 330.761719 C 185.996094 331.171875 185.859375 331.171875 185.996094 331.921875 M 64.597656 331.171875 C 65.210938 331.445312 65.6875 332.058594 65.757812 332.742188 L 65.347656 332.742188 C 64.9375 333.015625 64.9375 333.015625 64.1875 333.152344 C 63.980469 331.855469 64.050781 332.265625 64.597656 331.171875 Z M 220.496094 331.515625 L 222.070312 331.515625 C 222 332.058594 221.863281 332.605469 221.660156 333.085938 C 220.976562 332.8125 221.25 333.085938 220.839844 332.675781 C 220.496094 332.332031 220.632812 332.332031 220.496094 331.515625 M 295.101562 331.515625 C 295.648438 331.71875 296.195312 331.992188 296.671875 332.332031 L 296.671875 332.742188 L 296.261719 332.742188 C 295.714844 333.359375 295.988281 333.152344 295.101562 333.5625 L 295.101562 333.152344 C 294.691406 332.332031 294.894531 332.402344 295.101562 331.515625 M 180.464844 333.5625 L 182.855469 333.972656 C 184.289062 337.183594 187.160156 336.5 187.226562 341.078125 C 186.886719 341.488281 187.089844 341.078125 186.816406 341.898438 C 186.066406 342.171875 185.449219 342.582031 184.835938 343.058594 L 182.445312 342.648438 C 182.035156 342.035156 181.078125 341.351562 180.875 340.667969 C 180.464844 339.507812 181.625 338.550781 181.28125 337.9375 L 180.121094 337.527344 C 178.6875 335.886719 179.574219 334.929688 180.464844 333.5625 M 137.21875 335.132812 C 138.449219 335.613281 138.105469 335.269531 138.378906 336.707031 L 137.96875 336.707031 L 137.96875 337.117188 C 137.285156 336.84375 137.558594 337.117188 137.148438 336.707031 C 136.738281 335.953125 136.945312 336.023438 137.21875 335.132812 M 92.265625 339.507812 C 93.496094 339.507812 94.65625 339.644531 95.816406 339.917969 C 96.707031 341.214844 97.117188 342.71875 96.980469 344.289062 C 95.476562 345.3125 95.269531 346.132812 92.605469 346.269531 C 91.035156 344.765625 90.214844 344.835938 90.214844 341.488281 C 90.488281 341.078125 90.351562 341.488281 90.625 340.667969 C 91.238281 340.328125 91.785156 339.984375 92.265625 339.507812 M 305.691406 339.847656 L 307.261719 339.847656 C 307.738281 340.53125 308.082031 341.351562 308.082031 342.238281 C 307.398438 342.71875 306.578125 343.058594 305.691406 343.058594 C 304.9375 341.554688 304.9375 341.351562 305.691406 339.847656 Z M 294.621094 348.183594 C 297.355469 348.183594 299.816406 348.730469 300.566406 350.574219 C 301.25 351.667969 301.523438 352.898438 301.386719 354.128906 C 301.316406 355.765625 300.226562 357.203125 298.652344 357.679688 C 297.21875 358.15625 295.785156 358.292969 294.28125 358.089844 C 293.53125 357.066406 292.847656 357.066406 292.300781 355.699219 C 291.546875 354.398438 291.273438 352.828125 291.480469 351.324219 C 292.027344 350.644531 292.300781 349.414062 293.050781 348.933594 C 293.800781 348.457031 294.007812 348.933594 294.621094 348.183594 Z M 179.234375 352.144531 L 180.804688 352.144531 C 181.417969 353.101562 181.691406 353.035156 181.964844 354.535156 C 180.941406 355.5625 181.214844 355.902344 179.234375 356.109375 C 177.933594 354.195312 178.003906 354.058594 179.234375 352.144531 " fill-opacity="1" fill-rule="nonzero"/></g></svg>