<svg xmlns="http://www.w3.org/2000/svg" xmlns:xlink="http://www.w3.org/1999/xlink" width="500" zoomAndPan="magnify" viewBox="0 0 375 374.999991" height="500" preserveAspectRatio="xMidYMid meet" version="1.0"><defs><clipPath id="2e8d29ecf9"><path d="M 54 12.042969 L 320 12.042969 L 320 308 L 54 308 Z M 54 12.042969 " clip-rule="nonzero"/></clipPath></defs><g clip-path="url(#2e8d29ecf9)"><path fill="#eccedd" d="M 307.101562 107.386719 C 297.085938 87.285156 282.492188 69.855469 267.46875 53.117188 C 249.339844 33.011719 224.558594 12.90625 198.570312 12.476562 C 167.574219 12.042969 142.273438 15.0625 117.0625 33.097656 C 91.851562 51.128906 72.769531 77.359375 63.359375 106.871094 C 57.660156 124.558594 55.503906 143.714844 59.820312 161.746094 C 64.136719 179.78125 75.445312 196.605469 92.023438 205.0625 C 75.359375 222.492188 62.925781 243.976562 56.019531 267.015625 C 54.207031 273.054688 53 280.304688 57.144531 285.136719 C 62.238281 291.003906 71.476562 289.277344 79.246094 288.5 C 97.378906 286.859375 114.90625 293.851562 132.519531 298.59375 C 175.515625 310.15625 220.933594 307.828125 265.398438 305.410156 C 270.40625 305.152344 275.585938 304.808594 279.988281 302.304688 C 289.226562 297.042969 290.953125 284.617188 290.351562 274.003906 C 289.3125 255.453125 284.046875 237.074219 275.066406 220.851562 C 296.738281 214.726562 312.625 194.621094 317.460938 172.707031 C 322.210938 150.789062 317.117188 127.578125 307.101562 107.386719 M 242.691406 176.328125 C 226.804688 192.378906 202.367188 196.433594 179.832031 195.65625 C 161.355469 194.96875 142.101562 191.257812 127.597656 179.695312 C 115.164062 169.6875 107.308594 154.5 105.234375 138.625 C 103.164062 122.832031 106.789062 106.4375 114.128906 92.289062 C 121.726562 77.621094 133.640625 65.023438 148.578125 57.859375 C 163.515625 50.699219 181.300781 49.320312 196.671875 55.445312 C 225.941406 67.179688 244.589844 85.902344 253.65625 108.421875 C 262.722656 131.03125 259.785156 159.160156 242.691406 176.328125 " fill-opacity="1" fill-rule="nonzero"/></g><path fill="#f9dc52" d="M 76.484375 288.757812 C 78.210938 302.21875 88.3125 314.644531 99.707031 322.066406 C 111.105469 329.484375 124.402344 333.28125 137.699219 336.472656 C 162.394531 342.34375 188.121094 346.226562 213.246094 342.34375 C 238.371094 338.460938 264.964844 324.394531 278.609375 302.996094 C 244.675781 296.4375 207.808594 306.359375 173.359375 304.894531 C 162.566406 304.460938 151.773438 302.996094 141.410156 299.804688 C 131.050781 296.609375 121.292969 291.605469 110.761719 289.019531 C 100.140625 286.429688 87.363281 285.738281 76.484375 288.757812 " fill-opacity="1" fill-rule="nonzero"/><path fill="#f7dc4d" d="M 196.671875 55.53125 C 181.300781 49.40625 163.429688 50.785156 148.578125 57.945312 C 133.726562 65.109375 121.8125 77.707031 114.214844 92.375 C 106.789062 106.527344 103.25 122.832031 105.234375 138.625 C 107.308594 154.414062 115.078125 169.6875 127.597656 179.695312 C 142.015625 191.257812 161.269531 195.054688 179.832031 195.65625 C 202.367188 196.433594 226.804688 192.378906 242.691406 176.328125 C 259.785156 159.074219 262.722656 130.945312 253.65625 108.421875 C 244.589844 85.988281 225.941406 67.265625 196.671875 55.53125 " fill-opacity="1" fill-rule="nonzero"/><path fill="#bbe2f2" d="M 154.277344 321.03125 C 157.210938 321.03125 159.542969 323.617188 159.285156 326.550781 C 158.679688 332.679688 160.664062 339.148438 162.046875 345.363281 C 163.945312 353.386719 164.378906 363.050781 158.25 368.660156 C 154.277344 372.195312 148.664062 372.972656 143.398438 373.492188 C 131.742188 374.613281 120 375.042969 108.257812 374.785156 C 103.421875 374.699219 98.328125 374.351562 94.441406 371.417969 C 90.382812 368.398438 88.65625 362.792969 89.605469 357.875 C 90.558594 352.867188 93.835938 348.554688 98.070312 345.792969 C 101.003906 343.894531 104.457031 342.429688 106.097656 339.40625 C 108.429688 335.09375 106.183594 329.917969 105.320312 325 C 104.714844 321.375 107.738281 318.269531 111.363281 318.699219 C 125.523438 320.253906 139.683594 320.941406 154.277344 321.03125 " fill-opacity="1" fill-rule="nonzero"/><path fill="#bbe2f2" d="M 186.050781 320.597656 C 182.855469 320.597656 180.4375 323.273438 180.695312 326.464844 C 181.128906 332.503906 179.144531 338.804688 177.675781 344.84375 C 175.6875 352.867188 175.171875 362.53125 181.214844 368.140625 C 185.101562 371.765625 190.710938 372.628906 195.980469 373.144531 C 207.636719 374.351562 219.378906 374.957031 231.035156 374.785156 C 235.871094 374.699219 240.964844 374.441406 244.847656 371.59375 C 248.90625 368.574219 250.71875 363.050781 249.855469 358.046875 C 248.992188 353.042969 245.710938 348.726562 241.480469 345.878906 C 238.632812 343.894531 235.09375 342.429688 233.453125 339.40625 C 231.464844 335.699219 232.933594 331.210938 233.96875 326.898438 C 235.003906 322.496094 231.292969 318.355469 226.804688 318.785156 C 213.59375 320.082031 200.039062 320.597656 186.050781 320.597656 " fill-opacity="1" fill-rule="nonzero"/><path fill="#eeb75a" d="M 169.816406 120.417969 C 162.480469 121.195312 155.3125 124.042969 149.441406 128.527344 C 146.851562 130.511719 147.28125 134.566406 150.304688 136.035156 C 161.269531 141.472656 173.789062 143.628906 185.964844 142.160156 C 188.554688 141.816406 191.316406 141.296875 193.648438 140.261719 C 196.324219 139.054688 196.582031 135.257812 194.167969 133.617188 C 187.863281 129.476562 181.300781 125.335938 173.445312 121.109375 C 172.410156 120.589844 171.113281 120.332031 169.816406 120.417969 " fill-opacity="1" fill-rule="nonzero"/><path fill="#eeb75a" d="M 108.859375 139.398438 C 108.859375 131.808594 114.992188 125.679688 122.589844 125.679688 C 130.1875 125.679688 136.316406 131.808594 136.316406 139.398438 C 136.316406 146.992188 130.1875 153.121094 122.589844 153.121094 C 114.992188 153.207031 108.859375 146.992188 108.859375 139.398438 " fill-opacity="1" fill-rule="nonzero"/><path fill="#eeb75a" d="M 207.636719 153.207031 C 207.636719 145.613281 213.765625 139.484375 221.363281 139.484375 C 228.960938 139.484375 235.09375 145.613281 235.09375 153.207031 C 235.09375 160.796875 228.960938 166.925781 221.363281 166.925781 C 213.765625 166.925781 207.636719 160.796875 207.636719 153.207031 " fill-opacity="1" fill-rule="nonzero"/><path fill="#876835" d="M 132.605469 120.332031 C 132.605469 117.65625 134.761719 115.414062 137.527344 115.414062 C 140.203125 115.414062 142.449219 117.570312 142.449219 120.332031 C 142.449219 123.007812 140.289062 125.25 137.527344 125.25 C 134.761719 125.164062 132.605469 123.007812 132.605469 120.332031 " fill-opacity="1" fill-rule="nonzero"/><path fill="#876835" d="M 200.816406 127.925781 C 200.816406 125.25 202.972656 123.007812 205.734375 123.007812 C 208.414062 123.007812 210.65625 125.164062 210.65625 127.925781 C 210.65625 130.597656 208.5 132.84375 205.734375 132.84375 C 203.058594 132.757812 200.816406 130.597656 200.816406 127.925781 " fill-opacity="1" fill-rule="nonzero"/><path fill="#876835" d="M 163.082031 219.386719 C 163.945312 242.425781 162.480469 265.546875 158.679688 288.328125 C 159.628906 265.546875 160.492188 242.855469 163.082031 219.386719 " fill-opacity="1" fill-rule="nonzero"/><path fill="#876835" d="M 119.566406 184.09375 C 116.632812 186.941406 113.265625 189.1875 109.550781 190.910156 C 113.695312 190.738281 117.582031 188.324219 119.566406 184.09375 " fill-opacity="1" fill-rule="nonzero"/><path fill="#876835" d="M 93.578125 129.304688 C 88.742188 129.824219 83.734375 129.132812 79.246094 127.40625 C 82.699219 129.734375 87.191406 130.597656 93.578125 129.304688 " fill-opacity="1" fill-rule="nonzero"/><path fill="#876835" d="M 174.308594 47.59375 C 175.171875 42.15625 175.6875 36.460938 174.222656 31.199219 C 177.589844 36.117188 178.019531 42.847656 174.308594 47.59375 " fill-opacity="1" fill-rule="nonzero"/><path fill="#876835" d="M 248.476562 86.679688 C 254.261719 85.300781 259.527344 82.019531 263.238281 77.449219 C 261.082031 82.882812 255.296875 86.851562 248.476562 86.679688 " fill-opacity="1" fill-rule="nonzero"/><path fill="#876835" d="M 260.996094 158.554688 C 265.398438 162.4375 270.835938 165.027344 276.621094 165.976562 C 274.464844 167.269531 271.613281 166.839844 269.457031 165.628906 C 267.296875 164.335938 265.65625 162.351562 260.996094 158.554688 " fill-opacity="1" fill-rule="nonzero"/><path fill="#876835" d="M 216.441406 197.039062 C 222.398438 199.023438 226.628906 205.234375 226.371094 211.449219 C 224.386719 206.269531 221.710938 201.4375 216.441406 197.039062 " fill-opacity="1" fill-rule="nonzero"/><path fill="#876835" d="M 102.300781 343.464844 C 107.21875 339.753906 113.523438 338.371094 119.738281 338.546875 C 125.871094 338.71875 131.914062 340.269531 137.871094 341.824219 C 131.828125 340.789062 125.785156 339.753906 119.652344 339.753906 C 113.351562 339.753906 107.132812 340.875 102.300781 343.464844 " fill-opacity="1" fill-rule="nonzero"/><path fill="#876835" d="M 241.828125 348.984375 C 240.359375 347.433594 238.285156 346.222656 236.386719 345.015625 C 225.507812 339.496094 212.902344 339.0625 201.503906 343.464844 C 214.800781 340.445312 228.703125 342.253906 241.828125 348.984375 " fill-opacity="1" fill-rule="nonzero"/></svg>